HIERARCHY
ROOT Hips
{
 OFFSET 0.000000 0.000000 0.000000
 CHANNELS 6 Xposition Yposition Zposition Yrotation Xrotation Zrotation
 JOINT Chest
 {
  OFFSET 0.000000 9.588913 -0.003946
  CHANNELS 3 Yrotation Xrotation Zrotation
  JOINT Chest2
  {
   OFFSET 0.000000 9.541882 0.008053
   CHANNELS 3 Yrotation Xrotation Zrotation
   JOINT Chest3
   {
    OFFSET 0.000000 9.501360 0.000000
    CHANNELS 3 Yrotation Xrotation Zrotation
    JOINT Chest4
    {
     OFFSET 0.000000 9.491660 0.000000
     CHANNELS 3 Yrotation Xrotation Zrotation
     JOINT Neck
     {
      OFFSET 0.000000 14.331917 0.000000
      CHANNELS 3 Yrotation Xrotation Zrotation
      JOINT Head
      {
       OFFSET 0.000000 8.884799 0.017034
       CHANNELS 3 Yrotation Xrotation Zrotation
       End Site
       {
        OFFSET 0.000000 16.896195 0.008993
       }
      }
     }
     JOINT RightCollar
     {
      OFFSET -2.923010 9.499495 0.000000
      CHANNELS 3 Yrotation Xrotation Zrotation
      JOINT RightShoulder
      {
       OFFSET -13.795216 0.000000 0.000000
       CHANNELS 3 Yrotation Xrotation Zrotation
       JOINT RightElbow
       {
        OFFSET -30.272209 0.000000 0.000000
        CHANNELS 3 Yrotation Xrotation Zrotation
        JOINT RightWrist
        {
         OFFSET -24.478199 0.000000 0.000000
         CHANNELS 3 Yrotation Xrotation Zrotation
         End Site
         {
          OFFSET -18.090752 0.000000 0.000000
         }
        }
       }
      }
     }
     JOINT LeftCollar
     {
      OFFSET 2.923010 9.499495 0.000000
      CHANNELS 3 Yrotation Xrotation Zrotation
      JOINT LeftShoulder
      {
       OFFSET 13.795216 0.000000 0.000000
       CHANNELS 3 Yrotation Xrotation Zrotation
       JOINT LeftElbow
       {
        OFFSET 30.272209 0.000000 0.000000
        CHANNELS 3 Yrotation Xrotation Zrotation
        JOINT LeftWrist
        {
         OFFSET 24.478199 0.000000 0.000000
         CHANNELS 3 Yrotation Xrotation Zrotation
         End Site
         {
          OFFSET 18.090752 0.000000 0.000000
         }
        }
       }
      }
     }
    }
   }
  }
 }
 JOINT RightHip
 {
  OFFSET -7.826875 0.019532 0.001973
  CHANNELS 3 Yrotation Xrotation Zrotation
  JOINT RightKnee
  {
   OFFSET 0.000000 -40.546152 -0.001885
   CHANNELS 3 Yrotation Xrotation Zrotation
   JOINT RightAnkle
   {
    OFFSET 0.000000 -39.417092 -0.003189
    CHANNELS 3 Yrotation Xrotation Zrotation
    JOINT RightToe
    {
     OFFSET 0.000000 -7.579396 17.243563
     CHANNELS 3 Yrotation Xrotation Zrotation
     End Site
     {
      OFFSET 0.000000 -1.500329 6.694466
     }
    }
   }
  }
 }
 JOINT LeftHip
 {
  OFFSET 7.826875 0.019532 0.001973
  CHANNELS 3 Yrotation Xrotation Zrotation
  JOINT LeftKnee
  {
   OFFSET 0.000000 -40.546152 -0.001885
   CHANNELS 3 Yrotation Xrotation Zrotation
   JOINT LeftAnkle
   {
    OFFSET 0.000000 -39.417092 -0.003189
    CHANNELS 3 Yrotation Xrotation Zrotation
    JOINT LeftToe
    {
     OFFSET 0.000000 -7.579396 17.243563
     CHANNELS 3 Yrotation Xrotation Zrotation
     End Site
     {
      OFFSET 0.000000 -1.500329 6.694466
     }
    }
   }
  }
 }
}
MOTION
Frames: 9
Frame Time: 0.008333
164.543475 87.236783 -216.079039 139.801079 -8.567938 2.461810 -5.427835 3.978038 0.763824 -3.174165 2.387348 0.397036 -3.965975 2.987333 0.475665 -3.174162 2.387350 0.397037 -19.961494 28.086339 0.705365 -23.973019 7.920482 5.292005 1.431569 6.009746 -6.389053 -3.745628 4.758411 87.017386 52.992073 -22.416772 29.295219 -3.007401 -2.543667 12.573891 9.725764 2.024029 0.097276 3.214274 2.639751 -88.208885 -26.469049 -12.125931 -42.432708 -1.038895 -5.256363 -7.477584 -16.039422 -14.794751 -4.858548 -2.814958 4.933057 -3.029330 1.843885 -2.392947 2.658030 -0.238674 -2.045089 1.773848 -9.929407 20.788289 -3.170858 -7.918211 9.655793 0.899287 -1.150565 -14.097184 3.078210 0.142502 -6.936087 -1.732413
165.192823 87.195998 -216.413963 140.183887 -8.650080 2.529535 -5.333226 3.891860 0.805954 -3.157435 2.385612 0.386056 -3.945133 2.985054 0.462063 -3.157435 2.385615 0.386057 -19.589310 28.091083 0.582310 -23.437885 7.820594 5.066102 1.370283 5.887606 -6.289415 -3.847424 4.979737 86.924052 53.094496 -22.425106 29.367657 -2.987252 -2.568333 12.589497 9.730717 1.958144 0.127531 3.167635 2.719429 -88.165002 -26.400029 -12.030244 -42.492203 -1.010822 -5.242562 -7.483811 -15.824335 -14.493927 -5.007661 -2.361606 5.233180 -3.111799 1.534870 -1.688082 2.480893 -0.195317 -2.473589 1.646950 -9.952284 21.175712 -3.081373 -8.073857 9.825081 0.970703 -1.284500 -14.029909 2.966705 0.171873 -7.776038 -1.870848
165.862155 87.166121 -216.749643 140.551778 -8.781260 2.565956 -5.243242 3.836263 0.847163 -3.133942 2.393013 0.382890 -3.915779 2.994257 0.458196 -3.133943 2.393017 0.382891 -19.211815 28.093413 0.464082 -22.900133 7.719092 4.845152 1.320685 5.717753 -6.139530 -3.946852 5.251612 86.768626 53.193463 -22.454020 29.434940 -2.959593 -2.593328 12.603979 9.739834 1.879778 0.136372 3.136018 2.798123 -88.100058 -26.313168 -11.919287 -42.549441 -0.982008 -5.225469 -7.492525 -15.669151 -14.160194 -5.219638 -2.102642 5.616276 -3.129751 1.415595 -1.011299 2.586738 -0.181544 -2.822410 1.318485 -9.979124 21.594832 -2.971715 -8.241186 10.045251 1.046335 -1.385478 -13.931364 2.852455 0.204266 -8.624636 -1.986619
166.552739 87.147495 -217.082187 140.927686 -8.951118 2.549608 -5.185810 3.830994 0.892763 -3.102342 2.399247 0.393322 -3.876199 3.002111 0.471393 -3.102343 2.399253 0.393324 -18.835777 28.097444 0.343963 -22.367036 7.622285 4.622512 1.274354 5.525880 -5.956517 -4.021023 5.547788 86.565641 53.277857 -22.507016 29.485359 -2.925182 -2.618950 12.612518 9.747913 1.807751 0.129284 3.129816 2.868405 -88.027563 -26.206348 -11.790406 -42.593275 -0.956419 -5.206553 -7.504304 -15.593189 -13.831170 -5.461872 -2.098364 6.148808 -3.084506 1.499198 -0.442215 2.883979 -0.204498 -3.074343 0.875753 -10.032063 22.031903 -2.820088 -8.426100 10.322483 1.120038 -1.441066 -13.809718 2.734638 0.236653 -9.485670 -2.085657
167.266419 87.140467 -217.412791 141.343200 -9.173598 2.476358 -5.194616 3.903857 0.934323 -3.062643 2.396456 0.420953 -3.826383 2.998818 0.506221 -3.062643 2.396463 0.420956 -18.469647 28.109162 0.214521 -21.847829 7.539275 4.391101 1.222335 5.355828 -5.770197 -4.059508 5.825816 86.349502 53.336292 -22.572960 29.507708 -2.889191 -2.645593 12.616373 9.746306 1.764346 0.120862 3.152483 2.926768 -87.969472 -26.080415 -11.652577 -42.610543 -0.927841 -5.186277 -7.516803 -15.578872 -13.500575 -5.706803 -2.344904 6.841245 -2.999404 1.657180 0.031100 3.217821 -0.220402 -3.279092 0.448026 -10.145784 22.492984 -2.631116 -8.622029 10.667551 1.188443 -1.450574 -13.679080 2.613826 0.267848 -10.358150 -2.173075
167.992008 87.141215 -217.726434 141.715961 -9.330195 2.362682 -5.182689 3.943531 0.984373 -3.014991 2.381987 0.465550 -3.766521 2.981053 0.562406 -3.014991 2.381995 0.465553 -18.114906 28.129956 0.074255 -21.343923 7.472025 4.149557 1.151990 5.238010 -5.610418 -4.061782 6.048578 86.150660 53.357859 -22.636448 29.503649 -2.860765 -2.674168 12.614692 9.731502 1.757543 0.127510 3.198580 2.980356 -87.945017 -25.940206 -11.514937 -42.599650 -0.895651 -5.169544 -7.519916 -15.533349 -13.268927 -5.887202 -2.747858 7.667284 -2.900667 1.788565 0.351526 3.516556 -0.228033 -3.402465 0.086053 -10.214134 22.857797 -2.379595 -8.820964 11.083477 1.247917 -1.428100 -13.525929 2.488570 0.297737 -11.258733 -2.251670
168.732448 87.148994 -218.026553 142.049690 -9.446374 2.216724 -5.162622 3.975062 1.047410 -2.961148 2.357480 0.523304 -3.698844 2.950827 0.635155 -2.961148 2.357487 0.523307 -17.762758 28.155770 -0.072716 -20.844679 7.413558 3.901058 1.062416 5.167751 -5.494562 -4.025221 6.205823 85.982577 53.338878 -22.689563 29.479467 -2.844813 -2.700267 12.607360 9.716857 1.781075 0.156951 3.260283 3.035844 -87.964567 -25.792961 -11.381051 -42.565786 -0.869468 -5.162724 -7.501551 -15.477498 -13.095998 -5.987863 -3.163710 8.573689 -2.807050 1.785571 0.589714 3.780130 -0.177471 -3.508299 -0.205793 -10.229051 23.146060 -2.072914 -9.019211 11.584552 1.299893 -1.393528 -13.373422 2.356893 0.325588 -12.179902 -2.321034
169.481512 87.160249 -218.305031 142.302434 -9.456718 2.054232 -5.093155 3.937876 1.140367 -2.905045 2.324991 0.588613 -3.628309 2.910664 0.717420 -2.905045 2.324999 0.588617 -17.402511 28.180052 -0.221249 -20.337344 7.353372 3.649570 0.964313 5.121526 -5.423574 -3.951501 6.305020 85.841085 53.282821 -22.728532 29.439614 -2.840757 -2.721213 12.596464 9.713281 1.830189 0.208559 3.340283 3.094328 -88.033199 -25.650414 -11.250595 -42.516317 -0.855001 -5.165492 -7.455973 -15.404644 -13.020877 -5.988958 -3.499664 9.489362 -2.714716 1.692452 0.744363 4.048955 -0.096926 -3.570295 -0.461392 -10.133630 23.292113 -1.704787 -9.215295 12.162749 1.351013 -1.356748 -13.184805 2.211498 0.351464 -13.153557 -2.381007
170.240657 87.174332 -218.569749 142.513585 -9.405149 1.898691 -5.002530 3.875168 1.249261 -2.852324 2.285866 0.655571 -3.562011 2.862204 0.801765 -2.852323 2.285874 0.655575 -17.030993 28.195874 -0.368302 -19.818519 7.281997 3.398151 0.866064 5.080423 -5.388030 -3.854135 6.356313 85.717586 53.200089 -22.743775 29.390998 -2.845207 -2.737717 12.582228 9.714979 1.901823 0.281452 3.443983 3.157001 -88.155215 -25.526432 -11.128094 -42.459207 -0.855073 -5.176868 -7.378219 -15.406228 -12.979668 -5.926670 -3.711728 10.339564 -2.611382 1.567283 0.878023 4.321856 0.021932 -3.616394 -0.681349 -9.975640 23.325620 -1.318427 -9.408427 12.835568 1.407006 -1.323930 -13.007226 2.053312 0.374302 -14.146470 -2.434180
